<svg width="1700" height="1809" viewBox="0 0 1700 1809" fill="none" xmlns="http://www.w3.org/2000/svg">
<path d="M1697 975C1697 1434.47 1317.6 1807 849.5 1807C381.404 1807 2 1434.47 2 975C2 515.534 381.404 143 849.5 143C1317.6 143 1697 515.534 1697 975Z" stroke="#FDF0D1" stroke-width="4"/>
<path d="M1697 929C1697 1388.47 1317.6 1761 849.5 1761C381.404 1761 2 1388.47 2 929C2 469.534 381.404 97 849.5 97C1317.6 97 1697 469.534 1697 929Z" stroke="#FDF0D1" stroke-width="4"/>
<path d="M1697 883C1697 1342.47 1317.6 1715 849.5 1715C381.404 1715 2 1342.47 2 883C2 423.534 381.404 51 849.5 51C1317.6 51 1697 423.534 1697 883Z" stroke="#FDF0D1" stroke-opacity="0.9" stroke-width="4"/>
<ellipse cx="850.5" cy="834" rx="849.5" ry="834" fill="#ECD9A8"/>
</svg>
