<svg width="1439" height="775" viewBox="0 0 1439 775" fill="none" xmlns="http://www.w3.org/2000/svg">
<g clip-path="url(#clip0_226_2)">
<path d="M1437.46 59.8821C1437.46 449.077 1116.08 764.635 719.576 764.635C323.071 764.635 1.69412 449.077 1.69412 59.8821C1.69412 -329.313 323.071 -644.871 719.576 -644.871C1116.08 -644.871 1437.46 -329.313 1437.46 59.8821Z" stroke="#FDF0D1" stroke-width="3.38824"/>
<path d="M1437.46 20.9172C1437.46 410.112 1116.08 725.67 719.576 725.67C323.071 725.67 1.69412 410.112 1.69412 20.9172C1.69412 -368.278 323.071 -683.836 719.576 -683.836C1116.08 -683.836 1437.46 -368.278 1437.46 20.9172Z" stroke="#FDF0D1" stroke-width="3.38824"/>
<path d="M1437.46 -18.0471C1437.46 371.148 1116.08 686.706 719.576 686.706C323.071 686.706 1.69412 371.148 1.69412 -18.0471C1.69412 -407.242 323.071 -722.8 719.576 -722.8C1116.08 -722.8 1437.46 -407.242 1437.46 -18.0471Z" stroke="#FDF0D1" stroke-opacity="0.9" stroke-width="3.38824"/>
<ellipse cx="720.424" cy="-59.553" rx="719.576" ry="706.447" fill="#ECD9A8"/>
</g>
<defs>
<clipPath id="clip0_226_2">
<rect width="1439" height="775" fill="white"/>
</clipPath>
</defs>
</svg>
